<svg width="24" height="24" viewBox="0 0 24 24" fill="none" xmlns="http://www.w3.org/2000/svg">
<mask id="mask0_264_8" style="mask-type:alpha" maskUnits="userSpaceOnUse" x="0" y="0" width="24" height="24">
<rect width="24" height="24" fill="#D9D9D9"/>
</mask>
<g mask="url(#mask0_264_8)">
<path d="M3.7 17.575C3.16667 16.775 2.75 15.9042 2.45 14.9625C2.15 14.0208 2 13.0333 2 12C2 10.95 2.15 9.95833 2.45 9.025C2.75 8.09167 3.16667 7.225 3.7 6.425L5.375 7.525C4.94167 8.15833 4.60417 8.85417 4.3625 9.6125C4.12083 10.3708 4 11.1667 4 12C4 12.8333 4.12083 13.625 4.3625 14.375C4.60417 15.125 4.94167 15.8167 5.375 16.45L3.7 17.575ZM12 18C10.3333 18 8.91667 17.4167 7.75 16.25C6.58333 15.0833 6 13.6667 6 12C6 10.3333 6.58333 8.91667 7.75 7.75C8.91667 6.58333 10.3333 6 12 6C13.6667 6 15.0833 6.58333 16.25 7.75C17.4167 8.91667 18 10.3333 18 12C18 13.6667 17.4167 15.0833 16.25 16.25C15.0833 17.4167 13.6667 18 12 18ZM12 16C13.1 16 14.0417 15.6083 14.825 14.825C15.6083 14.0417 16 13.1 16 12C16 10.9 15.6083 9.95833 14.825 9.175C14.0417 8.39167 13.1 8 12 8C10.9 8 9.95833 8.39167 9.175 9.175C8.39167 9.95833 8 10.9 8 12C8 13.1 8.39167 14.0417 9.175 14.825C9.95833 15.6083 10.9 16 12 16ZM20.275 17.575L18.625 16.45C19.0583 15.8167 19.3958 15.125 19.6375 14.375C19.8792 13.625 20 12.8333 20 12C20 11.1667 19.8792 10.3708 19.6375 9.6125C19.3958 8.85417 19.0583 8.15833 18.625 7.525L20.275 6.425C20.8083 7.225 21.2292 8.09167 21.5375 9.025C21.8458 9.95833 22 10.95 22 12C22 13.0333 21.8458 14.0208 21.5375 14.9625C21.2292 15.9042 20.8083 16.775 20.275 17.575Z" fill="white"/>
</g>
</svg>
