<svg width="24" height="24" viewBox="0 0 24 24" fill="none" xmlns="http://www.w3.org/2000/svg">
<mask id="mask0_264_12" style="mask-type:alpha" maskUnits="userSpaceOnUse" x="0" y="0" width="24" height="24">
<rect width="24" height="24" fill="#D9D9D9"/>
</mask>
<g mask="url(#mask0_264_12)">
<path d="M3.69999 17.575C3.16666 16.775 2.74999 15.9042 2.44999 14.9625C2.14999 14.0208 1.99999 13.0333 1.99999 12C1.99999 10.95 2.14999 9.95832 2.44999 9.02499C2.74999 8.09165 3.16666 7.22499 3.69999 6.42499L5.37499 7.52499C4.94166 8.15832 4.60416 8.85415 4.36249 9.61249C4.12083 10.3708 3.99999 11.1667 3.99999 12C3.99999 12.8333 4.12083 13.625 4.36249 14.375C4.60416 15.125 4.94166 15.8167 5.37499 16.45L3.69999 17.575ZM17.425 14.525L15.875 12.975C15.9083 12.8083 15.9375 12.6458 15.9625 12.4875C15.9875 12.3292 16 12.1667 16 12C16 10.9 15.6083 9.95832 14.825 9.17499C14.0417 8.39165 13.1 7.99999 12 7.99999C11.8333 7.99999 11.6708 8.01249 11.5125 8.03749C11.3542 8.06249 11.1917 8.09165 11.025 8.12499L9.47499 6.57499C9.85833 6.39165 10.2625 6.24999 10.6875 6.14999C11.1125 6.04999 11.55 5.99999 12 5.99999C13.6667 5.99999 15.0833 6.58332 16.25 7.74999C17.4167 8.91665 18 10.3333 18 12C18 12.45 17.95 12.8875 17.85 13.3125C17.75 13.7375 17.6083 14.1417 17.425 14.525ZM20.35 17.45L18.9 16C19.25 15.4167 19.5208 14.7917 19.7125 14.125C19.9042 13.4583 20 12.75 20 12C20 11.1667 19.8792 10.3708 19.6375 9.61249C19.3958 8.85415 19.0583 8.15832 18.625 7.52499L20.275 6.42499C20.8083 7.22499 21.2292 8.09165 21.5375 9.02499C21.8458 9.95832 22 10.95 22 12C22 13 21.8542 13.9583 21.5625 14.875C21.2708 15.7917 20.8667 16.65 20.35 17.45ZM12 16C12.1833 16 12.3625 15.9875 12.5375 15.9625C12.7125 15.9375 12.8833 15.9 13.05 15.85L8.14999 10.95C8.09999 11.1167 8.06249 11.2875 8.03749 11.4625C8.01249 11.6375 7.99999 11.8167 7.99999 12C7.99999 13.1 8.39166 14.0417 9.17499 14.825C9.95833 15.6083 10.9 16 12 16ZM19.775 22.6L14.6 17.4C14.2167 17.5833 13.8042 17.7292 13.3625 17.8375C12.9208 17.9458 12.4667 18 12 18C10.3333 18 8.91666 17.4167 7.74999 16.25C6.58333 15.0833 5.99999 13.6667 5.99999 12C5.99999 11.5333 6.05416 11.0792 6.16249 10.6375C6.27083 10.1958 6.41666 9.78332 6.59999 9.39999L1.39999 4.19999L2.79999 2.79999L21.2 21.2L19.775 22.6Z" fill="white"/>
</g>
</svg>
